<svg width="24" height="24" viewBox="0 0 24 24" fill="none" xmlns="http://www.w3.org/2000/svg">
<path d="M12.2527 14.4359L3.50212 23.1865C2.84142 23.8472 1.7605 23.8375 1.08782 23.1648C0.415151 22.4922 0.40545 21.4112 1.06616 20.7505L9.8167 12L1.06616 3.24944C0.40545 2.58873 0.415151 1.50781 1.08782 0.835139C1.7605 0.162466 2.84142 0.152765 3.50212 0.813472L12.2527 9.56402L21.0032 0.813472C21.6639 0.152765 22.7448 0.162466 23.4175 0.835139C24.0902 1.50781 24.0999 2.58873 23.4392 3.24944L14.6886 12L23.4392 20.7505C24.0999 21.4112 24.0902 22.4922 23.4175 23.1648C22.7448 23.8375 21.6639 23.8472 21.0032 23.1865L12.2527 14.4359Z" fill="#979797"/>
</svg>
