<svg width="23" height="23" viewBox="0 0 23 23" fill="none" xmlns="http://www.w3.org/2000/svg">
<path d="M6.9 2.3C6.9 1.66487 7.41487 1.15 8.05 1.15H14.95C15.5851 1.15 16.1 1.66487 16.1 2.3V2.875H17.25V1.725C17.25 0.772309 16.4777 0 15.525 0H7.475C6.52231 0 5.75 0.772309 5.75 1.725V2.875H6.9V2.3Z" fill="#B4B4B4"/>
<path fill-rule="evenodd" clip-rule="evenodd" d="M0.575 4.02499H22.425C22.7426 4.02499 23 4.28243 23 4.59999C23 4.91756 22.7426 5.17499 22.425 5.17499H20.125V21.275C20.125 22.2277 19.3527 23 18.4 23H4.6C3.64731 23 2.875 22.2277 2.875 21.275V5.17499H0.575C0.257436 5.17499 0 4.91756 0 4.59999C0 4.28243 0.257436 4.02499 0.575 4.02499ZM7.475 17.825C7.79256 17.825 8.05 17.5676 8.05 17.25V9.19999C8.05 8.88243 7.79256 8.62499 7.475 8.62499C7.15744 8.62499 6.9 8.88243 6.9 9.19999V17.25C6.9 17.5676 7.15744 17.825 7.475 17.825ZM12.075 18.4C12.075 18.7176 11.8176 18.975 11.5 18.975C11.1824 18.975 10.925 18.7176 10.925 18.4V8.04999C10.925 7.73243 11.1824 7.47499 11.5 7.47499C11.8176 7.47499 12.075 7.73243 12.075 8.04999V18.4ZM15.525 17.825C15.8426 17.825 16.1 17.5676 16.1 17.25V9.19999C16.1 8.88243 15.8426 8.62499 15.525 8.62499C15.2074 8.62499 14.95 8.88243 14.95 9.19999V17.25C14.95 17.5676 15.2074 17.825 15.525 17.825Z" fill="#B4B4B4"/>
</svg>
