<svg width="24" height="24" viewBox="0 0 24 24" fill="none" xmlns="http://www.w3.org/2000/svg">
<g clip-path="url(#clip0)">
<path d="M18.1738 12.544C18.2344 12.4844 18.2826 12.4134 18.3155 12.335C18.3484 12.2566 18.3654 12.1724 18.3654 12.0874C18.3654 12.0024 18.3484 11.9183 18.3155 11.8399C18.2826 11.7615 18.2344 11.6904 18.1738 11.6309C18.1151 11.5703 18.0449 11.5221 17.9673 11.4892C17.8896 11.4563 17.8062 11.4393 17.7218 11.4393C17.6375 11.4393 17.554 11.4563 17.4764 11.4892C17.3987 11.5221 17.3285 11.5703 17.2699 11.6309L12.6398 16.2523V0.982431C12.6398 0.626274 12.3568 0.333984 12.0006 0.333984C11.6444 0.333984 11.3521 0.626274 11.3521 0.982431V16.2523L6.73132 11.6309C6.67176 11.5702 6.60071 11.522 6.52232 11.4891C6.44393 11.4562 6.35977 11.4393 6.27476 11.4393C6.18975 11.4393 6.10559 11.4562 6.0272 11.4891C5.94881 11.522 5.87776 11.5702 5.8182 11.6309C5.75754 11.6904 5.70935 11.7615 5.67646 11.8399C5.64357 11.9183 5.62663 12.0024 5.62663 12.0874C5.62663 12.1724 5.64357 12.2566 5.67646 12.335C5.70935 12.4134 5.75754 12.4844 5.8182 12.544L11.5443 18.2701C11.6667 18.3888 11.8304 18.4551 12.0009 18.4551C12.1713 18.4551 12.3351 18.3888 12.4574 18.2701L18.1738 12.544ZM22.7123 16.7362C22.7123 16.38 22.9954 16.0969 23.3516 16.0969C23.7077 16.0969 24 16.38 24 16.7362V23.0193C24 23.3754 23.7077 23.6677 23.3516 23.6677H0.639261C0.554688 23.6672 0.471049 23.65 0.39313 23.6171C0.315212 23.5842 0.244543 23.5363 0.185169 23.476C0.125794 23.4158 0.0788798 23.3445 0.0471099 23.2661C0.01534 23.1877 -0.00066153 23.1038 2.09458e-05 23.0193V16.7362C2.09458e-05 16.38 0.283105 16.0969 0.639261 16.0969C0.995418 16.0969 1.28771 16.38 1.28771 16.7362V22.38H22.7123V16.7362Z" fill="black"/>
</g>
<defs>
<clipPath id="clip0">
<rect width="24" height="24" fill="white"/>
</clipPath>
</defs>
</svg>
