<?xml version="1.0" encoding="utf-8"?>
<!-- Generator: Adobe Illustrator 16.0.0, SVG Export Plug-In . SVG Version: 6.00 Build 0)  -->
<!DOCTYPE svg PUBLIC "-//W3C//DTD SVG 1.1//EN" "http://www.w3.org/Graphics/SVG/1.1/DTD/svg11.dtd">
<svg version="1.1" id="Layer_1" xmlns="http://www.w3.org/2000/svg" xmlns:xlink="http://www.w3.org/1999/xlink" x="0px" y="0px"
	 width="853.457px" height="390px" viewBox="0 0 853.457 390" enable-background="new 0 0 853.457 390" xml:space="preserve">
<g>
	<path fill="#1B1B1C" d="M34.271,133.616v-15.346h33.376V59.19h32.609v59.081h46.42v15.346h-46.42v127.368
		c0,3.068,0.126,6.588,0.384,10.55c0.251,3.968,1.019,7.673,2.302,11.126c1.277,3.452,3.261,6.329,5.946,8.632
		c2.686,2.302,6.456,3.452,11.317,3.452c6.138,0,11.251-2.302,15.346-6.905c4.088-4.604,7.415-9.591,9.975-14.962l18.031,18.415
		c-12.534,12.534-26.729,18.798-42.584,18.798c-6.654,0-13.175-1.151-19.565-3.453c-6.396-2.302-12.084-5.814-17.072-10.55
		c-4.987-4.729-9.016-10.802-12.085-18.223c-3.069-7.415-4.604-16.113-4.604-26.088v-118.16H34.271z"/>
	<path fill="#1B1B1C" d="M384.534,214.564c0,13.301-2.302,26.027-6.905,38.172c-4.604,12.15-11.191,22.826-19.757,32.033
		c-8.572,9.207-18.93,16.497-31.075,21.867c-12.151,5.371-25.77,8.057-40.858,8.057c-15.345,0-29.222-2.751-41.625-8.248
		c-12.409-5.497-22.893-12.852-31.458-22.06c-8.572-9.207-15.22-19.883-19.949-32.033c-4.735-12.145-7.097-24.745-7.097-37.789
		c0-13.296,2.362-26.021,7.097-38.172c4.729-12.145,11.377-22.826,19.949-32.034c8.566-9.208,19.05-16.557,31.458-22.059
		c12.402-5.497,26.279-8.249,41.625-8.249c15.088,0,28.707,2.751,40.858,8.249c12.145,5.502,22.502,12.852,31.075,22.059
		c8.566,9.208,15.153,19.889,19.757,32.034C382.232,188.542,384.534,201.268,384.534,214.564z M348.088,214.564
		c0-17.899-1.918-32.417-5.754-43.543c-3.836-11.126-8.824-19.758-14.962-25.896s-12.918-10.292-20.333-12.468
		c-7.421-2.17-14.578-3.261-21.483-3.261c-6.906,0-14.069,1.091-21.484,3.261c-7.421,2.176-14.261,6.33-20.525,12.468
		c-6.27,6.138-11.383,14.77-15.345,25.896c-3.968,11.125-5.947,25.644-5.947,43.543c0,17.647,1.979,32.034,5.947,43.16
		c3.962,11.125,9.075,19.757,15.345,25.896c6.264,6.138,13.104,10.298,20.525,12.468c7.415,2.176,14.578,3.261,21.484,3.261
		c6.905,0,14.063-1.085,21.483-3.261c7.415-2.17,14.195-6.33,20.333-12.468c6.138-6.139,11.125-14.771,14.962-25.896
		C346.17,246.598,348.088,232.211,348.088,214.564z"/>
	<path fill="#1B1B1C" d="M559.662,289.565c8.824-3.453,17.708-8.884,26.663-16.305l11.126,14.578
		c-8.698,6.653-19.374,12.792-32.034,18.415c-12.66,5.622-27.43,8.439-44.311,8.439c-15.094,0-28.646-2.625-40.665-7.864
		c-12.025-5.239-22.317-12.402-30.883-21.484c-8.572-9.075-15.154-19.817-19.758-32.226c-4.604-12.402-6.905-25.763-6.905-40.09
		c0-13.553,2.109-26.339,6.33-38.364c4.22-12.019,10.55-22.503,18.99-31.458c8.439-8.95,18.798-16.047,31.074-21.292
		c12.276-5.239,26.472-7.865,42.584-7.865c7.673,0,15.663,0.708,23.978,2.11c8.309,1.409,16.113,3.968,23.402,7.672
		c7.289,3.711,13.745,8.572,19.373,14.579c5.623,6.012,9.717,13.619,12.276,22.826h-26.471c-2.817-8.949-8.572-16.496-17.264-22.634
		c-8.698-6.139-18.931-9.208-30.691-9.208c-7.163,0-14.71,1.475-22.635,4.412c-7.931,2.943-15.153,7.673-21.675,14.195
		c-6.522,6.522-11.959,15.22-16.305,26.087c-4.353,10.874-6.522,24.109-6.522,39.707c0,15.094,1.979,27.814,5.946,38.172
		c3.963,10.358,9.268,18.672,15.921,24.937c6.648,6.27,14.255,10.808,22.827,13.619c8.565,2.817,17.455,4.22,26.663,4.22
		C541.182,294.744,550.839,293.018,559.662,289.565z"/>
	<path fill="#1B1B1C" d="M675.71,41.542v102.815h1.534l4.22-5.371c8.692-9.717,17.966-16.305,27.814-19.757
		c9.843-3.453,19.241-5.179,28.197-5.179c6.647,0,13.619,0.899,20.908,2.686c7.289,1.792,14.003,5.245,20.141,10.358
		c6.139,5.119,11.252,12.216,15.346,21.292c4.088,9.082,6.139,20.782,6.139,35.103V310.09h-32.609V192.313
		c0-7.672-0.45-15.087-1.343-22.251c-0.899-7.157-2.752-13.427-5.563-18.798c-2.817-5.371-6.846-9.651-12.085-12.852
		c-5.245-3.195-12.217-4.795-20.908-4.795c-12.276,0-21.867,2.494-28.773,7.481c-6.905,4.987-12.084,10.934-15.537,17.839
		c-3.453,6.906-5.563,14.069-6.33,21.484c-0.768,7.421-1.15,13.685-1.15,18.798V310.09h-32.609V41.542H675.71z"/>
</g>
</svg>
