<?xml version="1.0" encoding="UTF-8"?>
<svg width="22px" height="22px" viewBox="0 0 22 22" version="1.1" xmlns="http://www.w3.org/2000/svg" xmlns:xlink="http://www.w3.org/1999/xlink">
    <!-- Generator: Sketch 50.2 (55047) - http://www.bohemiancoding.com/sketch -->
    <title>noun_658769_cc</title>
    <desc>Created with Sketch.</desc>
    <defs></defs>
    <g id="web_app" stroke="none" stroke-width="1" fill="none" fill-rule="evenodd">
        <g id="home" transform="translate(-35.000000, -106.000000)" fill="#231f20" fill-rule="nonzero">
            <g id="noun_658769_cc" transform="translate(35.000000, 106.000000)">
                <g id="Group">
                    <path d="M9.23541667,17.0729167 C5.06458333,17.0729167 1.67291667,13.68125 1.67291667,9.51041667 L2.13125,9.51041667 C2.13125,13.4291667 5.31666667,16.6145833 9.23541667,16.6145833 L9.23541667,17.0729167 Z" id="Shape"></path>
                    <path d="M9.51041667,18.7458333 C4.35416667,18.7458333 0.160416667,14.5520833 0.160416667,9.39583333 C0.160416667,4.23958333 4.35416667,0.0458333333 9.51041667,0.0458333333 C14.6666667,0.0458333333 18.8604167,4.23958333 18.8604167,9.39583333 C18.8604167,14.5520833 14.6666667,18.7458333 9.51041667,18.7458333 Z M9.51041667,0.9625 C4.85833333,0.9625 1.07708333,4.74375 1.07708333,9.39583333 C1.07708333,14.0479167 4.85833333,17.8291667 9.51041667,17.8291667 C14.1625,17.8291667 17.94375,14.0479167 17.94375,9.39583333 C17.94375,4.74375 14.1625,0.9625 9.51041667,0.9625 Z" id="Shape"></path>
                    <path d="M20.7625,21.8625 L15.8583333,16.9354167 L16.8208333,15.9729167 L21.725,20.8770833 C21.8625,21.0145833 21.8625,21.2208333 21.725,21.3583333 L21.24375,21.8395833 C21.10625,22 20.9,22 20.7625,21.8625 Z" id="Shape"></path>
                </g>
            </g>
        </g>
    </g>
</svg>